<svg width="1440" height="728" viewBox="0 0 1440 728" fill="none" xmlns="http://www.w3.org/2000/svg">
<g clip-path="url(#clip0_1_58)">
<path d="M1442 -40.056H2V323.944H1442V-40.056Z" fill="#FCBD18"/>
<path d="M1451 -38.056L1496.94 9.54941L1543.96 99.6909L1494.29 188.397L1439.73 274.189L1338.07 275.521L1236.5 271.172L1184.52 183.797L1137.49 93.6558L1187.17 4.95007L1236.5 -38.056H1338.07H1451Z" fill="#FFFECB"/>
<path d="M543.623 414L598.664 477.003L655 596.3L595.489 713.697L530.12 827.237L408.319 829L286.626 823.244L224.348 707.609L168 588.313L227.523 470.916L286.626 414H408.319H543.623Z" fill="#FFFECB"/>
<path d="M1144.48 438L1200.09 497.359L1257 609.757L1196.88 720.365L1130.84 827.339L1007.79 829L884.844 823.577L821.926 714.629L765 602.232L825.134 491.624L884.844 438H1007.79H1144.48Z" fill="#FFFECB"/>
<path d="M239 -39.056L262.943 -4.45059L309.965 85.6909L260.288 174.397L205.734 260.189L104.074 261.521L2.49835 257.172L-49.4846 169.797L-96.5061 79.6558L-46.8292 -9.04996L2.49835 -39.056H104.074H239Z" fill="#FFFECB"/>
<path d="M516.855 80.0377L569.905 169.027L617.965 260.879L568.405 351.893L513.903 439.959L411.294 441.983L308.732 438.199L255.683 349.208L207.624 257.357L257.183 166.344L311.685 78.2769L414.295 76.2533L516.855 80.0377Z" fill="#FDD302"/>
<path d="M820.31 259.734L878.166 349.766L931.085 442.692L884.863 534.767L833.491 623.862L729.414 625.905L625.123 622.074L567.267 532.042L514.348 439.116L560.569 347.041L611.941 257.947L716.019 255.903L820.31 259.734Z" fill="#EDCF55"/>
<path d="M818.88 -85.8692L877.075 2.44742L930.253 93.5829L882.948 183.58L830.436 270.643L724.935 272.324L619.246 268.252L561.051 179.936L507.873 88.8001L555.179 -1.19709L607.69 -88.2601L713.191 -89.9407L818.88 -85.8692Z" fill="#EDCF55"/>
<path d="M1135.96 92.175L1187.94 179.549L1234.96 269.691L1185.29 358.397L1130.73 444.189L1029.07 445.521L927.498 441.172L875.515 353.797L828.494 263.656L878.171 174.95L932.725 89.1575L1034.38 87.8261L1135.96 92.175Z" fill="#FED700"/>
<path d="M1437.96 274.175L1489.94 361.549L1536.96 451.691L1487.29 540.397L1432.73 626.189L1331.07 627.521L1229.5 623.172L1177.52 535.797L1130.49 445.656L1180.17 356.95L1234.72 271.157L1336.38 269.826L1437.96 274.175Z" fill="#D29902"/>
<path d="M207.894 260.287L260.766 347.241L308.698 437.012L259.795 526.259L205.982 612.635L104.207 614.927L2.4623 611.534L-50.4102 524.579L-98.3412 434.808L-49.4387 345.562L4.37455 259.185L106.15 256.893L207.894 260.287Z" fill="#D29902"/>
<path d="M440.495 274.122C447.423 277.792 453.007 283.015 457.249 289.791C461.491 296.567 463.612 304.048 463.612 312.235C463.611 324.093 459.44 334.256 451.099 342.726C442.757 351.055 432.648 355.219 420.771 355.219H323V249.772C323 237.914 327.171 227.821 335.513 219.493C343.996 211.164 354.176 207 366.053 207H405.076C416.953 207 427.063 211.164 435.405 219.493C443.888 227.821 448.13 237.914 448.129 249.772C448.126 250.061 448.129 250.343 448.14 250.618C448.136 250.907 448.14 251.19 448.15 251.464L447.933 252.1C447.937 252.243 447.935 252.387 447.927 252.533L447.938 253.379C447.942 253.522 447.94 253.734 447.934 254.014C447.93 254.304 447.858 254.587 447.718 254.864C447.729 255.71 447.656 256.557 447.501 257.403C447.356 257.691 447.284 257.903 447.285 258.038C447.281 258.328 447.209 258.611 447.069 258.888C447.065 259.176 446.993 259.459 446.853 259.736C446.849 260.024 446.777 260.308 446.637 260.585C446.493 261.151 446.349 261.646 446.203 262.068C446.059 262.775 445.847 263.553 445.566 264.4C445.421 264.688 445.349 264.9 445.35 265.035C445.205 265.324 445.061 265.607 444.917 265.883C444.773 266.307 444.56 266.801 444.279 267.366C444.135 267.655 444.062 267.867 444.063 268.001C443.918 268.291 443.774 268.573 443.63 268.849C443.342 269.273 443.13 269.697 442.994 270.12C442.849 270.41 442.704 270.692 442.56 270.968C441.852 272.098 441.145 273.156 440.438 274.142L440.495 274.122ZM346.541 249.772V269.464L405.076 269.463C410.449 269.463 415.045 267.558 418.862 263.746C422.68 259.935 424.588 255.277 424.588 249.772C424.589 244.408 422.68 239.82 418.862 236.009C415.045 232.197 410.449 230.292 405.076 230.292L366.053 230.291C360.68 230.292 356.085 232.197 352.267 236.008C349.44 238.831 347.602 242.148 346.753 245.96C346.609 247.232 346.537 248.502 346.539 249.77L346.541 249.772ZM420.771 331.715C426.143 331.715 430.739 329.809 434.556 325.998C438.374 322.187 440.282 317.6 440.282 312.235C440.283 306.871 438.374 302.283 434.556 298.472C430.738 294.661 426.143 292.755 420.771 292.755H366.053C360.68 292.755 356.085 294.661 352.267 298.472C348.45 302.284 346.541 306.871 346.541 312.235V331.715H420.771Z" fill="white"/>
<path d="M845.968 244.003C842.259 243.918 839.529 245.558 836.704 247.702C834.234 250.169 833 253.174 833 256.72V354.762H845.97C849.522 354.762 852.532 353.527 855.002 351.062C857.472 348.595 858.706 345.589 858.706 342.044V244.002L845.968 244.003Z" fill="white"/>
<path d="M750.968 244.003C747.259 243.918 744.529 245.558 741.704 247.702C739.234 250.169 738 253.174 738 256.72V354.762H750.97C754.522 354.762 757.532 353.527 760.002 351.062C762.472 348.595 763.706 345.589 763.706 342.044V244.002L750.968 244.003Z" fill="white"/>
<path d="M814.998 342.116C815.057 338.365 813.917 335.604 812.426 332.746C810.711 330.248 808.622 329 806.157 329L738 329L738 342.118C738 345.711 738.859 348.755 740.572 351.254C742.287 353.752 744.377 355 746.841 355L814.998 355L814.998 342.116Z" fill="white"/>
<path d="M877.995 297.499C878.273 282.086 883.912 269.082 894.913 258.488C897.739 255.764 900.873 253.353 904.309 251.257C913.369 245.561 923.379 242.812 934.34 243.01C945.455 243.21 955.359 246.318 964.054 252.333C971.838 257.407 977.972 264.071 982.456 272.323C986.94 280.575 989.093 289.633 988.916 299.497L987.92 354.753C970.437 355.665 962.276 350.971 962.675 328.858L963.212 299.034C963.362 290.712 960.633 283.57 955.027 277.61C949.263 271.802 942.214 268.822 933.877 268.672C925.695 268.525 918.619 271.249 912.65 276.847C906.678 282.598 903.618 289.635 903.468 297.958L902.93 327.782C902.783 352.26 891.268 353.011 877 352.754L877.995 297.499Z" fill="white"/>
<path d="M948.606 311.725C948.606 307.555 947.076 304.01 944.011 301.09C941.089 298.032 937.536 296.503 933.359 296.502C929.042 296.504 925.352 298.031 922.289 301.09C919.366 304.009 917.902 307.555 917.903 311.725C917.903 316.035 919.366 319.719 922.289 322.777C925.352 325.697 929.042 327.157 933.359 327.157C937.535 327.157 941.087 325.697 944.011 322.777C947.074 319.719 948.606 316.035 948.606 311.725Z" fill="#643818"/>
<path d="M535.97 353.703C520.555 353.626 507.479 348.155 496.743 337.293C493.983 334.503 491.531 331.401 489.391 327.992C483.578 319.007 480.699 309.033 480.754 298.07C480.81 286.954 483.789 277.01 489.691 268.238C494.664 260.388 501.247 254.168 509.44 249.577C517.633 244.987 526.663 242.717 536.529 242.765L591.792 243.044C592.931 260.514 588.343 268.734 566.228 268.624L536.399 268.473C528.075 268.432 520.969 271.253 515.083 276.936C509.35 282.774 506.463 289.862 506.42 298.2C506.38 306.383 509.196 313.423 514.87 319.318C520.698 325.216 527.775 328.184 536.098 328.227L565.927 328.377C590.405 328.206 591.306 339.71 591.234 353.981L535.97 353.703Z" fill="white"/>
<rect x="497.472" y="286.611" width="76" height="26" rx="13" transform="rotate(-0.780858 497.472 286.611)" fill="white"/>
<path d="M660.97 353.703C645.555 353.626 632.479 348.155 621.743 337.293C618.983 334.503 616.531 331.401 614.391 327.992C608.578 319.007 605.699 309.033 605.754 298.07C605.81 286.954 608.789 277.01 614.691 268.238C619.664 260.388 626.247 254.168 634.44 249.577C642.633 244.987 651.663 242.717 661.529 242.765L716.792 243.044C717.931 260.514 713.343 268.734 691.228 268.624L661.399 268.473C653.075 268.432 645.969 271.253 640.083 276.936C634.35 282.774 631.463 289.862 631.42 298.2C631.38 306.383 634.196 313.423 639.87 319.318C645.698 325.216 652.775 328.184 661.098 328.227L690.927 328.377C715.405 328.206 716.306 339.71 716.234 353.981L660.97 353.703Z" fill="white"/>
<rect x="622.472" y="286.611" width="76" height="26" rx="13" transform="rotate(-0.780858 622.472 286.611)" fill="white"/>
<path d="M1058.97 353.703C1043.55 353.626 1030.48 348.155 1019.74 337.293C1016.98 334.503 1014.53 331.401 1012.39 327.992C1006.58 319.007 1003.7 309.033 1003.75 298.07C1003.81 286.954 1006.79 277.01 1012.69 268.238C1017.66 260.388 1024.25 254.168 1032.44 249.577C1040.63 244.987 1049.66 242.717 1059.53 242.765L1114.79 243.044C1115.93 260.514 1111.34 268.734 1089.23 268.624L1059.4 268.473C1051.08 268.432 1043.97 271.253 1038.08 276.936C1032.35 282.774 1029.46 289.862 1029.42 298.2C1029.38 306.383 1032.2 313.423 1037.87 319.318C1043.7 325.216 1050.77 328.184 1059.1 328.227L1088.93 328.377C1113.4 328.206 1114.31 339.71 1114.23 353.981L1058.97 353.703Z" fill="white"/>
<rect x="1020.47" y="286.611" width="76" height="26" rx="13" transform="rotate(-0.780858 1020.47 286.611)" fill="white"/>
</g>
<defs>
<clipPath id="clip0_1_58">
<rect width="1440" height="728" fill="white"/>
</clipPath>
</defs>
</svg>
