<svg width="1440" height="728" viewBox="0 0 1440 728" fill="none" xmlns="http://www.w3.org/2000/svg">
<rect x="2.00002" y="-40.056" width="1440" height="364" fill="#FCBD18"/>
<path d="M1451 -38.056L1496.94 9.54941L1543.96 99.6909L1494.29 188.397L1439.73 274.189L1338.07 275.521L1236.5 271.172L1184.52 183.797L1137.49 93.6558L1187.17 4.95007L1236.5 -38.056L1338.07 -38.056L1451 -38.056Z" fill="#FFFECB"/>
<path d="M239 -39.056L262.943 -4.45059L309.965 85.6909L260.288 174.397L205.734 260.189L104.074 261.521L2.49835 257.172L-49.4846 169.797L-96.5061 79.6558L-46.8292 -9.04996L2.49835 -39.056L104.074 -39.056L239 -39.056Z" fill="#FFFECB"/>
<path d="M517.96 87.175L569.943 174.549L616.965 264.691L567.288 353.397L512.734 439.189L411.074 440.521L309.498 436.172L257.515 348.797L210.494 258.656L260.171 169.95L314.725 84.1575L416.385 82.8261L517.96 87.175Z" fill="#FDD302"/>
<path d="M823.999 263.574L879.959 353.324L930.831 445.766L881.281 534.547L826.6 620.264L721.09 619.295L615.537 612.571L559.577 522.821L508.705 430.379L558.255 341.598L612.936 255.881L718.446 256.85L823.999 263.574Z" fill="#EDCF55"/>
<path d="M1135.96 92.175L1187.94 179.549L1234.96 269.691L1185.29 358.397L1130.73 444.189L1029.07 445.521L927.498 441.172L875.515 353.797L828.494 263.656L878.171 174.95L932.725 89.1575L1034.38 87.8261L1135.96 92.175Z" fill="#FED700"/>
<path d="M1434.96 274.175L1486.94 361.549L1533.96 451.691L1484.29 540.397L1429.73 626.189L1328.07 627.521L1226.5 623.172L1174.52 535.797L1127.49 445.656L1177.17 356.95L1231.72 271.157L1333.38 269.826L1434.96 274.175Z" fill="#D29902"/>
<path d="M213.96 258.175L265.943 345.549L312.965 435.691L263.288 524.397L208.734 610.189L107.074 611.521L5.49833 607.172L-46.4846 519.797L-93.5061 429.656L-43.8292 340.95L10.7249 255.157L112.385 253.826L213.96 258.175Z" fill="#D29902"/>
<path d="M446.495 269.066C453.423 272.736 459.007 277.959 463.249 284.735C467.491 291.511 469.612 298.992 469.612 307.179C469.611 319.037 465.44 329.2 457.099 337.67C448.757 345.999 438.648 350.163 426.771 350.163L329 350.163L329 244.716C329 232.858 333.171 222.765 341.513 214.437C349.996 206.108 360.176 201.944 372.053 201.944H411.076C422.953 201.944 433.063 206.108 441.405 214.437C449.888 222.765 454.13 232.858 454.129 244.716C454.126 245.005 454.129 245.287 454.14 245.562C454.136 245.851 454.14 246.134 454.15 246.408L453.933 247.044C453.937 247.187 453.935 247.331 453.927 247.477L453.938 248.323C453.942 248.466 453.94 248.678 453.934 248.958C453.93 249.248 453.858 249.531 453.718 249.808C453.729 250.654 453.656 251.501 453.501 252.347C453.356 252.635 453.284 252.847 453.285 252.982C453.281 253.272 453.209 253.555 453.069 253.832C453.065 254.12 452.993 254.403 452.853 254.68C452.849 254.968 452.777 255.252 452.637 255.529C452.493 256.095 452.349 256.59 452.203 257.012C452.059 257.719 451.847 258.497 451.566 259.344C451.421 259.632 451.349 259.844 451.35 259.979C451.205 260.268 451.061 260.551 450.917 260.827C450.773 261.251 450.56 261.745 450.279 262.31C450.135 262.599 450.062 262.811 450.063 262.945C449.918 263.235 449.774 263.517 449.63 263.793C449.342 264.217 449.13 264.641 448.994 265.064C448.849 265.354 448.704 265.636 448.56 265.912C447.852 267.042 447.145 268.1 446.438 269.086L446.495 269.066ZM352.541 244.716L352.541 264.408L411.076 264.407C416.449 264.407 421.045 262.502 424.862 258.69C428.68 254.879 430.588 250.221 430.588 244.716C430.589 239.352 428.68 234.764 424.862 230.953C421.045 227.141 416.449 225.236 411.076 225.236L372.053 225.235C366.68 225.236 362.085 227.141 358.267 230.952C355.44 233.775 353.602 237.092 352.753 240.904C352.609 242.176 352.537 243.446 352.539 244.714L352.541 244.716ZM426.771 326.659C432.143 326.659 436.739 324.753 440.556 320.942C444.374 317.131 446.282 312.544 446.282 307.179C446.283 301.815 444.374 297.227 440.556 293.416C436.738 289.605 432.143 287.699 426.771 287.699H372.053C366.68 287.699 362.085 289.605 358.267 293.416C354.45 297.228 352.541 301.815 352.541 307.179L352.541 326.659L426.771 326.659Z" fill="white"/>
<path d="M853.889 239.629C850.18 239.544 847.45 241.184 844.625 243.328C842.155 245.795 840.921 248.8 840.921 252.346L840.921 350.388L853.891 350.388C857.443 350.388 860.453 349.153 862.923 346.688C865.393 344.221 866.627 341.215 866.627 337.67L866.627 239.628L853.889 239.629Z" fill="white"/>
<path d="M882.56 294.441C882.838 279.028 888.477 266.024 899.478 255.43C902.304 252.706 905.438 250.295 908.874 248.199C917.934 242.503 927.944 239.754 938.905 239.952C950.02 240.152 959.924 243.26 968.619 249.275C976.403 254.349 982.537 261.013 987.021 269.265C991.505 277.517 993.658 286.575 993.481 296.439L992.485 351.695C975.002 352.607 966.841 347.913 967.24 325.8L967.777 295.976C967.927 287.654 965.198 280.512 959.592 274.552C953.828 268.744 946.779 265.764 938.442 265.614C930.26 265.467 923.184 268.191 917.215 273.789C911.243 279.54 908.183 286.577 908.033 294.9L907.495 324.724C907.348 349.202 895.833 349.953 881.565 349.696L882.56 294.441Z" fill="white"/>
<path d="M736.654 286.477V320.088C733.12 323.642 731.356 327.969 731.356 333.068L731.361 333.298C731.361 337.934 732.789 341.874 735.64 345.119C738.495 348.364 741.957 349.986 746.032 349.986H828.967L828.967 337.239C828.967 333.685 827.881 330.672 825.708 328.199C823.536 325.572 820.887 324.259 817.761 324.259H766.818L767.685 260.403C771.219 256.85 772.905 250.338 769.88 245.123C767.277 240.633 762.183 238.955 758.108 238.955L723.455 239.508C723.455 239.508 722.156 241.569 722.156 245.123C722.156 248.677 724.204 251.092 726.377 253.564C728.549 256.036 733.159 256 736.284 256L736.654 286.477Z" fill="white"/>
<path d="M1057.82 350.909C1042.41 350.622 1029.41 344.974 1018.82 333.966C1016.1 331.138 1013.69 328.003 1011.59 324.566C1005.9 315.502 1003.16 305.491 1003.37 294.53C1003.57 283.415 1006.69 273.513 1012.71 264.822C1017.79 257.041 1024.45 250.911 1032.71 246.432C1040.96 241.954 1050.02 239.806 1059.89 239.99L1115.14 241.021C1116.04 258.505 1111.34 266.663 1089.23 266.25L1059.41 265.694C1051.09 265.538 1043.94 268.263 1037.98 273.865C1032.17 279.625 1029.18 286.673 1029.03 295.009C1028.87 303.191 1031.59 310.268 1037.19 316.241C1042.94 322.217 1049.97 325.282 1058.29 325.437L1088.12 325.994C1112.6 326.157 1113.34 337.672 1113.07 351.941L1057.82 350.909Z" fill="white"/>
<path d="M1115.22 296.159C1115.35 292.452 1113.75 289.702 1111.64 286.851C1109.2 284.352 1106.21 283.08 1102.67 283.037L1004.63 281.842L1004.47 294.811C1004.43 298.363 1005.63 301.388 1008.06 303.888C1010.5 306.387 1013.49 307.658 1017.03 307.702L1115.07 308.897L1115.22 296.159Z" fill="white"/>
<path d="M530.58 349.611C515.167 349.324 502.167 343.675 491.58 332.668C488.858 329.84 486.449 326.705 484.355 323.267C478.665 314.204 475.923 304.192 476.127 293.231C476.334 282.116 479.449 272.214 485.47 263.523C490.549 255.742 497.216 249.612 505.471 245.133C513.726 240.655 522.786 238.508 532.65 238.691L587.905 239.723C588.805 257.207 584.106 265.364 561.994 264.952L532.17 264.395C523.848 264.24 516.704 266.964 510.741 272.566C504.929 278.326 501.945 285.374 501.789 293.71C501.637 301.892 504.357 308.97 509.95 314.942C515.697 320.918 522.733 323.983 531.055 324.139L560.879 324.695C585.357 324.858 586.101 336.373 585.835 350.642L530.58 349.611Z" fill="white"/>
<path d="M587.986 294.86C588.115 291.153 586.508 288.404 584.399 285.552C581.963 283.053 578.973 281.782 575.427 281.738L477.393 280.543L477.235 293.512C477.191 297.065 478.389 300.089 480.824 302.589C483.261 305.088 486.251 306.36 489.796 306.403L587.831 307.598L587.986 294.86Z" fill="white"/>
<path d="M653.299 348.961C637.887 348.674 624.887 343.026 614.299 332.019C611.577 329.19 609.169 326.055 607.074 322.618C601.384 313.554 598.642 303.543 598.846 292.582C599.053 281.467 602.168 271.565 608.189 262.874C613.268 255.093 619.935 248.963 628.191 244.484C636.446 240.006 645.505 237.858 655.369 238.042L710.624 239.073C711.525 256.557 706.825 264.715 684.713 264.302L654.89 263.746C646.567 263.59 639.424 266.315 633.46 271.917C627.648 277.677 624.664 284.725 624.509 293.061C624.356 301.243 627.076 308.32 632.669 314.293C638.417 320.269 645.452 323.334 653.775 323.489L683.598 324.046C708.076 324.209 708.82 335.724 708.554 349.993L653.299 348.961Z" fill="white"/>
<path d="M710.705 294.211C710.835 290.504 709.228 287.754 707.119 284.903C704.683 282.404 701.692 281.132 698.146 281.089L600.112 279.894L599.954 292.863C599.91 296.416 601.108 299.44 603.543 301.94C605.98 304.439 608.971 305.71 612.516 305.754L710.55 306.949L710.705 294.211Z" fill="white"/>
<path d="M953.171 310.667C953.171 306.497 951.641 302.952 948.576 300.032C945.654 296.974 942.101 295.445 937.924 295.444C933.607 295.446 929.917 296.973 926.854 300.032C923.931 302.951 922.467 306.497 922.468 310.667C922.468 314.977 923.931 318.661 926.854 321.719C929.917 324.639 933.607 326.099 937.924 326.099C942.1 326.099 945.652 324.639 948.576 321.719C951.639 318.661 953.171 314.977 953.171 310.667Z" fill="#333333"/>
</svg>
