<svg width="1440" height="905" viewBox="0 0 1440 905" fill="none" xmlns="http://www.w3.org/2000/svg">
<rect x="-1" width="1440" height="442" fill="#FCBD18"/>
<path d="M1441.96 99.231L1493.94 186.605L1540.96 276.747L1491.29 365.453L1436.73 451.245L1335.07 452.577L1233.5 448.228L1181.52 360.853L1134.49 270.712L1184.17 182.006L1238.72 96.2135L1340.38 94.8821L1441.96 99.231Z" fill="#FFFECB"/>
<path d="M207.96 88.231L259.943 175.605L306.965 265.747L257.288 354.453L202.734 440.245L101.074 441.577L-0.501682 437.228L-52.4846 349.853L-99.5062 259.712L-49.8292 171.006L4.72485 85.2135L106.385 83.8821L207.96 88.231Z" fill="#FFFECB"/>
<path d="M517.96 264.231L569.943 351.605L616.965 441.747L567.288 530.453L512.734 616.245L411.074 617.577L309.498 613.228L257.515 525.853L210.494 435.712L260.171 347.006L314.725 261.213L416.385 259.882L517.96 264.231Z" fill="#FDD302"/>
<path d="M824.96 439.231L876.943 526.605L923.965 616.747L874.288 705.453L819.734 791.245L718.074 792.577L616.498 788.228L564.515 700.853L517.494 610.712L567.171 522.006L621.725 436.213L723.385 434.882L824.96 439.231Z" fill="#EDCF55"/>
<path d="M1132.96 269.231L1184.94 356.605L1231.96 446.747L1182.29 535.453L1127.73 621.245L1026.07 622.577L924.498 618.228L872.515 530.853L825.494 440.712L875.171 352.006L929.725 266.213L1031.38 264.882L1132.96 269.231Z" fill="#FED700"/>
<path d="M1431.96 451.231L1483.94 538.605L1530.96 628.747L1481.29 717.453L1426.73 803.245L1325.07 804.577L1223.5 800.228L1171.52 712.853L1124.49 622.712L1174.17 534.006L1228.72 448.213L1330.38 446.882L1431.96 451.231Z" fill="#D29902"/>
<path d="M210.96 435.231L262.943 522.605L309.965 612.747L260.288 701.453L205.734 787.245L104.074 788.577L2.49832 784.228L-49.4846 696.853L-96.5062 606.712L-46.8292 518.006L7.72485 432.213L109.385 430.882L210.96 435.231Z" fill="#D29902"/>
<path d="M443.495 387.122C450.423 390.792 456.008 396.015 460.249 402.791C464.491 409.567 466.612 417.048 466.612 425.235C466.611 437.093 462.44 447.256 454.099 455.726C445.757 464.054 435.648 468.219 423.771 468.219L326 468.219L326 362.772C326 350.914 330.171 340.821 338.513 332.493C346.996 324.164 357.176 320 369.053 320H408.076C419.953 320 430.063 324.164 438.405 332.493C446.888 340.821 451.13 350.914 451.129 362.772C451.126 363.061 451.129 363.343 451.14 363.618C451.136 363.907 451.14 364.19 451.15 364.464L450.933 365.1C450.937 365.243 450.935 365.387 450.927 365.533L450.938 366.379C450.942 366.522 450.94 366.734 450.934 367.014C450.93 367.304 450.859 367.587 450.718 367.864C450.729 368.71 450.656 369.557 450.501 370.403C450.356 370.691 450.284 370.903 450.285 371.038C450.281 371.328 450.209 371.611 450.069 371.888C450.065 372.176 449.993 372.459 449.853 372.736C449.849 373.024 449.777 373.307 449.637 373.585C449.493 374.151 449.349 374.646 449.204 375.068C449.059 375.775 448.847 376.552 448.566 377.4C448.421 377.688 448.349 377.9 448.35 378.035C448.205 378.324 448.061 378.607 447.917 378.883C447.773 379.307 447.56 379.801 447.279 380.366C447.135 380.655 447.062 380.867 447.063 381.001C446.918 381.291 446.774 381.573 446.63 381.849C446.342 382.273 446.13 382.697 445.994 383.12C445.849 383.41 445.704 383.692 445.56 383.968C444.852 385.098 444.145 386.156 443.438 387.142L443.495 387.122ZM349.541 362.772L349.541 382.464L408.076 382.463C413.449 382.463 418.045 380.557 421.862 376.746C425.68 372.935 427.588 368.277 427.588 362.772C427.589 357.408 425.68 352.82 421.862 349.009C418.045 345.197 413.449 343.292 408.076 343.292L369.053 343.291C363.68 343.292 359.085 345.197 355.267 349.008C352.44 351.831 350.602 355.148 349.753 358.96C349.609 360.232 349.537 361.502 349.539 362.77L349.541 362.772ZM423.771 444.715C429.143 444.715 433.739 442.809 437.556 438.998C441.374 435.187 443.282 430.6 443.282 425.235C443.283 419.871 441.374 415.283 437.556 411.472C433.739 407.661 429.143 405.755 423.771 405.755H369.053C363.68 405.755 359.085 407.661 355.267 411.472C351.45 415.284 349.541 419.871 349.541 425.235L349.541 444.715L423.771 444.715Z" fill="white"/>
<path d="M850.889 357.685C847.18 357.6 844.451 359.24 841.625 361.384C839.156 363.85 837.921 366.856 837.921 370.402L837.921 468.444L850.891 468.443C854.443 468.444 857.453 467.209 859.923 464.744C862.393 462.277 863.627 459.271 863.627 455.726L863.627 357.684L850.889 357.685Z" fill="white"/>
<path d="M879.56 412.497C879.838 397.084 885.478 384.08 896.478 373.486C899.305 370.762 902.438 368.351 905.874 366.255C914.934 360.559 924.944 357.81 935.905 358.008C947.02 358.208 956.924 361.316 965.619 367.331C973.403 372.405 979.537 379.069 984.021 387.321C988.505 395.573 990.658 404.631 990.481 414.495L989.485 469.751C972.002 470.663 963.841 465.969 964.24 443.856L964.777 414.032C964.927 405.71 962.198 398.568 956.592 392.608C950.829 386.8 943.779 383.82 935.442 383.67C927.26 383.523 920.185 386.247 914.215 391.845C908.243 397.596 905.183 404.633 905.033 412.956L904.495 442.78C904.348 467.258 892.833 468.009 878.565 467.752L879.56 412.497Z" fill="white"/>
<path d="M733.654 404.533V438.144C730.12 441.698 728.356 446.025 728.356 451.124L728.361 451.354C728.361 455.99 729.789 459.93 732.64 463.175C735.495 466.42 738.957 468.042 743.032 468.042H825.967L825.967 455.294C825.967 451.741 824.881 448.728 822.708 446.255C820.536 443.628 817.887 442.315 814.761 442.315H763.818L764.685 378.459C768.219 374.906 769.905 368.394 766.88 363.179C764.277 358.689 759.183 357.011 755.108 357.011L720.455 357.564C720.455 357.564 719.156 359.625 719.156 363.179C719.156 366.733 721.204 369.148 723.377 371.62C725.549 374.092 730.159 374.056 733.284 374.056L733.654 404.533Z" fill="white"/>
<path d="M1054.82 468.965C1039.41 468.678 1026.41 463.03 1015.82 452.022C1013.1 449.194 1010.69 446.059 1008.59 442.622C1002.9 433.558 1000.16 423.547 1000.37 412.586C1000.57 401.471 1003.69 391.569 1009.71 382.878C1014.79 375.097 1021.45 368.967 1029.71 364.488C1037.96 360.01 1047.02 357.862 1056.89 358.046L1112.14 359.077C1113.04 376.561 1108.34 384.719 1086.23 384.306L1056.41 383.75C1048.09 383.594 1040.94 386.319 1034.98 391.921C1029.17 397.681 1026.18 404.729 1026.03 413.065C1025.87 421.247 1028.59 428.324 1034.19 434.297C1039.94 440.273 1046.97 443.338 1055.29 443.493L1085.12 444.05C1109.6 444.213 1110.34 455.728 1110.07 469.996L1054.82 468.965Z" fill="white"/>
<path d="M1112.22 414.215C1112.35 410.508 1110.75 407.758 1108.64 404.907C1106.2 402.407 1103.21 401.136 1099.67 401.093L1001.63 399.898L1001.47 412.867C1001.43 416.419 1002.63 419.444 1005.06 421.944C1007.5 424.443 1010.49 425.714 1014.03 425.758L1112.07 426.953L1112.22 414.215Z" fill="white"/>
<path d="M527.58 467.667C512.167 467.379 499.167 461.731 488.58 450.724C485.858 447.896 483.449 444.761 481.355 441.323C475.665 432.26 472.923 422.248 473.127 411.287C473.334 400.172 476.449 390.27 482.47 381.579C487.549 373.798 494.216 367.668 502.471 363.189C510.726 358.711 519.786 356.564 529.65 356.747L584.905 357.779C585.805 375.263 581.106 383.42 558.994 383.008L529.17 382.451C520.848 382.296 513.704 385.02 507.741 390.622C501.929 396.382 498.945 403.43 498.789 411.766C498.637 419.948 501.357 427.026 506.95 432.998C512.697 438.974 519.733 442.039 528.055 442.195L557.879 442.751C582.357 442.914 583.101 454.429 582.835 468.698L527.58 467.667Z" fill="white"/>
<path d="M584.986 412.916C585.115 409.209 583.508 406.46 581.399 403.608C578.963 401.109 575.973 399.838 572.427 399.794L474.393 398.599L474.235 411.568C474.191 415.121 475.389 418.145 477.824 420.645C480.261 423.144 483.251 424.416 486.796 424.459L584.831 425.654L584.986 412.916Z" fill="white"/>
<path d="M650.299 467.017C634.887 466.73 621.887 461.082 611.299 450.074C608.577 447.246 606.169 444.111 604.074 440.674C598.384 431.61 595.642 421.599 595.847 410.638C596.053 399.523 599.168 389.621 605.189 380.93C610.268 373.149 616.935 367.019 625.191 362.54C633.446 358.062 642.505 355.914 652.369 356.098L707.624 357.129C708.525 374.613 703.825 382.771 681.713 382.358L651.89 381.802C643.567 381.646 636.424 384.371 630.46 389.973C624.648 395.733 621.664 402.781 621.509 411.117C621.356 419.299 624.076 426.376 629.669 432.349C635.417 438.325 642.452 441.39 650.775 441.545L680.598 442.102C705.076 442.265 705.82 453.78 705.554 468.049L650.299 467.017Z" fill="white"/>
<path d="M707.705 412.267C707.835 408.56 706.228 405.81 704.119 402.959C701.683 400.46 698.692 399.188 695.146 399.145L597.112 397.95L596.954 410.919C596.91 414.471 598.108 417.496 600.543 419.996C602.98 422.495 605.971 423.766 609.516 423.81L707.55 425.005L707.705 412.267Z" fill="white"/>
<path d="M950.171 428.723C950.171 424.553 948.641 421.008 945.576 418.088C942.654 415.03 939.101 413.5 934.924 413.5C930.607 413.502 926.917 415.029 923.854 418.088C920.931 421.007 919.467 424.553 919.468 428.723C919.468 433.033 920.931 436.717 923.854 439.775C926.917 442.695 930.607 444.155 934.924 444.155C939.1 444.155 942.652 442.695 945.576 439.775C948.639 436.717 950.171 433.033 950.171 428.723Z" fill="#333333"/>
</svg>
